<svg xmlns="http://www.w3.org/2000/svg" xmlns:xlink="http://www.w3.org/1999/xlink" viewBox="0 0 611.28 525.58"><defs><style>.cls-1{fill:#a67c52;}.cls-2{fill:url(#linear-gradient);}.cls-3,.cls-4,.cls-8{fill:#fff;}.cls-3{opacity:0.35;}.cls-4{opacity:0.25;}.cls-5{fill:#333;opacity:0.23;}.cls-6{fill:url(#linear-gradient-2);}.cls-7{fill:#1a1a1a;opacity:0.34;}.cls-8{opacity:0.19;}</style><linearGradient id="linear-gradient" x1="-122.83" y1="616.47" x2="470.07" y2="340" gradientTransform="matrix(0.99, 0.15, -0.15, 0.99, 218.4, -201.76)" gradientUnits="userSpaceOnUse"><stop offset="0" stop-color="#a3c63f"/><stop offset="0.42" stop-color="#a3c651"/><stop offset="1" stop-color="#a3c670"/></linearGradient><linearGradient id="linear-gradient-2" x1="421.38" y1="652.87" x2="1015.71" y2="375.73" gradientTransform="matrix(-0.99, -0.13, 0.13, -0.99, 939.88, 812.49)" xlink:href="#linear-gradient"/></defs><title>Asset 1</title><g id="Layer_2" data-name="Layer 2"><g id="Layer_1-2" data-name="Layer 1"><path class="cls-1" d="M1.63,432.46,582.9.41c47.43,125.51,50.36,345-110.15,464.33S72.5,503.05,1.63,432.46Z"/><path class="cls-2" d="M15.9,419.83,573.83,5.1c45.54,120.47,48.35,331.18-105.72,445.7S83.92,487.57,15.9,419.83Z"/><path class="cls-3" d="M367.46,158.53C395,195.31,381.1,252.29,336.37,285.8s-103.31,30.81-130.87-6"/><path class="cls-4" d="M236.79,308.15c-16,31.48-36.38,94.9-53.34,86.25-17.12-8.72,23-62,39.08-93.51"/><path class="cls-4" d="M286.16,310.4c0,22.6,8.22,64.62-6.43,64.61s-5.89-42-5.88-64.61"/><path class="cls-4" d="M319.34,302.44C324,327.35,341.75,372,325.6,375c-16.33,3.05-15.17-45.14-19.84-70.06"/><path d="M405.27,155.8c-7.82,3.51-14.92,4.66-15.85,2.57s4.64-6.64,12.45-10.14,14.92-4.65,15.86-2.56S413.08,152.29,405.27,155.8Z"/><path d="M434.06,185.31c-8.46,1.4-15.62.7-16-1.56s6.17-5.23,14.63-6.63,15.62-.71,16,1.55S442.52,183.91,434.06,185.31Z"/><path d="M275.6,340.07c-.1-8.58,1.67-15.54,4-15.58s4.24,6.9,4.35,15.47-1.68,15.54-4,15.56S275.71,348.63,275.6,340.07Z"/><path d="M315.13,346.55c-1.51-8.44-.91-15.61,1.34-16s5.32,6.1,6.82,14.54.91,15.6-1.35,16S316.64,355,315.13,346.55Z"/><path d="M196.13,359c3.32-7.9,7.73-13.58,9.85-12.7s1.13,8-2.2,15.91-7.72,13.6-9.84,12.71S192.81,366.91,196.13,359Z"/><path d="M419.72,222.16c-8.51-1-15.19-3.63-14.94-5.91s7.38-3.32,15.9-2.33,15.2,3.63,14.93,5.91S428.24,223.15,419.72,222.16Z"/><path class="cls-1" d="M582.9.41,1.63,432.46C-9.9,391.66,38.07,287.64,198.81,169.22S539.49-5.42,582.9.41Z"/><path class="cls-5" d="M582.9.41,1.63,432.46C-9.9,391.66,38.07,287.64,198.81,169.22S539.49-5.42,582.9.41Z"/><path class="cls-6" d="M573.86,7.13,17,421.07C5.94,381.9,45.29,287.67,199.58,174S532.21,1.52,573.86,7.13Z"/><path class="cls-7" d="M574.43,6.7,17.58,420.64c-11.64-38.74,27.71-133,182-246.66S532.21,1.52,574.43,6.7Z"/><path class="cls-3" d="M206.68,281.34c1.37-26,11.72-38.94,56.57-72.07s91.45-54.57,106.25-47.9"/><path class="cls-4" d="M360.86,151.63c20.43-21.06,51.6-58.83,63.83-61.32s-33.12,38.18-53.57,59.23"/><path class="cls-4" d="M320.12,169.7c5.07-10.65,7.59-27.29,19.83-33s-4.49,17.54-9.55,28.18"/><path class="cls-4" d="M290.62,186.31c1.67-9.94-3.15-24.13,11-31.81s2.57,15.41.88,25.34"/><path d="M186.08,288.73c7.3-4.68,13.49-8,13.81-7.36s-5.36,4.93-12.67,9.61-13.51,8-13.82,7.36S178.76,293.41,186.08,288.73Z"/><path d="M168.62,286c7.38-3.94,13.2-6.38,13-5.46s-6.32,4.86-13.7,8.78-13.2,6.38-13,5.47S161.25,289.9,168.62,286Z"/><path d="M335.58,151.62c-1.84,4-4.88,8-6.79,8.89s-2-1.61-.17-5.62,4.86-8,6.79-8.87S337.39,147.63,335.58,151.62Z"/><path d="M304,163.87c-.61,3.4-2.73,7-4.71,8.08s-3.07-.83-2.44-4.22,2.73-7,4.7-8.07S304.64,160.47,304,163.87Z"/><path d="M406.17,111.9c-4.53,5-9.48,9.4-11,9.8s.83-3.34,5.37-8.35,9.51-9.4,11.07-9.79S410.72,106.89,406.17,111.9Z"/><path d="M188.84,263.05c6.88-2.85,11.88-4.19,11.14-3s-6.9,4.42-13.8,7.25-11.88,4.18-11.15,3S181.94,265.88,188.84,263.05Z"/><path class="cls-8" d="M37.4,417.13C159.11,502.77,602.86,575.79,562.64,26.72c42.86,113.41,45.52,311.77-99.52,419.58S101.45,480.91,37.4,417.13Z"/></g></g></svg>